#!OML:ASF H:\Male1\Project 1\Capture day 1\Session 1\Male1.ASF
:FULLY-SPECIFIED
:DEGREES
279
root 41.4019 15.6867 4.22176 184.564 1.22094 -164.525
lowerback 19.7183 0.541497 1.83834
upperback 8.06198 2.53256 -1.9354
thorax -2.16576 1.97044 -3.65573
lowerneck -10.3389 2.71979 2.79103
upperneck -2.61512 2.961 0.652955
head 0.94131 1.32397 -0.152245
rclavicle 1.74931e-014 -1.11319e-013
rhumerus -52.0302 27.0059 -96.6904
rradius 63.2506
rwrist -38.929
rhand -37.2731 4.10024
rfingers 7.12502
rthumb -10.3381 -25.6256
lclavicle 1.74931e-014 -1.11319e-013
lhumerus -41.4343 6.8137 68.8264
lradius 60.8857
lwrist 9.40494
lhand -32.426 17.7759
lfingers 7.12502
lthumb -5.66008 47.6804
rfemur -17.5636 15.1537 21.4209
rtibia 26.5866
rfoot -1.66118 -29.4783
rtoes -13.2124
lfemur -24.621 -12.6543 -12.9666
ltibia 42.6725
lfoot -8.26021 -5.50648
ltoes 31.1481
280
root 41.7283 15.3215 4.23065 184.247 0.541306 -164.277
lowerback 20.8994 0.441931 0.957057
upperback 7.88925 2.26338 -1.55478
thorax -3.01943 1.80337 -2.75381
lowerneck -10.1443 3.00333 3.79255
upperneck -2.44258 3.25418 0.0682268
head 0.998619 1.4615 -0.491329
rclavicle 4.92986e-014 5.725e-014
rhumerus -51.9017 27.7225 -97.1901
rradius 62.5947
rwrist -39.1541
rhand -36.75 3.60227
rfingers 7.12502
rthumb -9.83341 -26.1481
lclavicle 4.92986e-014 5.725e-014
lhumerus -40.3447 7.34714 69.1321
lradius 56.868
lwrist 6.76621
lhand -34.5992 18.854
lfingers 7.12502
lthumb -7.75798 48.6917
rfemur -18.2887 13.0444 21.8415
rtibia 29.0481
rfoot -4.52733 -28.0516
rtoes -31.5171
lfemur -25.6664 -11.2738 -12.7871
ltibia 45.978
lfoot -15.9435 -3.41297
ltoes 21.6016
281
root 42.0263 14.939 4.22438 183.794 -0.116932 -164.813
lowerback 21.6674 0.392657 -0.110714
upperback 7.95239 2.04638 -1.59121
thorax -3.37731 1.70505 -2.16737
lowerneck -10.2422 2.82159 4.13497
upperneck -2.10568 2.96542 0.303645
head 1.12075 1.32705 -0.484934
rclavicle -1.59028e-014 -4.77083e-015
rhumerus -51.6345 27.5853 -97.5537
rradius 61.6307
rwrist -38.6252
rhand -36.1647 3.74641
rfingers 7.12502
rthumb -9.26876 -26.0298
lclavicle -1.59028e-014 -4.77083e-015
lhumerus -39.0595 6.74589 69.4783
lradius 53.0068
lwrist 4.87828
lhand -35.9277 16.2249
lfingers 7.12502
lthumb -9.04006 46.0112
rfemur -18.0559 9.18526 21.97
rtibia 32.0007
rfoot -9.31539 -20.6835
rtoes -42.4206
lfemur -27.477 -10.9542 -13.2349
ltibia 50.404
lfoot -22.4307 -2.13747
ltoes 26.2532
282
root 42.3044 14.6677 4.2157 183.366 -0.647666 -167.609
lowerback 22.5895 2.93168 -2.30367
upperback 8.13619 1.45173 -2.05535
thorax -3.72541 -0.0202777 -1.21349
lowerneck -10.1085 2.55364 4.92013
upperneck -2.32198 2.51478 0.182535
head 1.03553 1.08347 -0.67653
rclavicle -7.31528e-014 -5.725e-014
rhumerus -51.8872 26.4783 -97.7994
rradius 60.8464
rwrist -38.128
rhand -35.9675 4.45188
rfingers 7.12502
rthumb -9.07841 -25.3327
lclavicle -7.31528e-014 -5.725e-014
lhumerus -36.9446 5.13249 70.157
lradius 48.8121
lwrist 3.7607
lhand -36.4802 15.8287
lfingers 7.12502
lthumb -9.57319 45.5913
rfemur -19.5307 6.95576 19.5328
rtibia 36.0265
rfoot -13.9008 -18.6291
rtoes -48.7893
lfemur -28.6931 -12.1651 -15.8247
ltibia 54.5175
lfoot -27.1588 -0.460192
ltoes 26.2001
283
root 42.5593 14.3841 4.20497 183.993 -1.3116 -165.397
lowerback 22.6653 2.62878 -0.254752
upperback 7.98288 1.60047 -1.59739
thorax -3.86768 0.104346 -1.92823
lowerneck -10.1014 2.35665 4.44906
upperneck -2.68612 2.24521 1.46278
head 0.882298 0.943975 -0.207937
rclavicle -1.59028e-014 -6.04305e-014
rhumerus -51.3689 25.7283 -98.1493
rradius 59.2208
rwrist -37.9074
rhand -36.5057 4.57476
rfingers 7.12502
rthumb -9.59775 -25.1866
lclavicle -1.59028e-014 -6.04305e-014
lhumerus -34.6069 4.25089 70.8374
lradius 44.8346
lwrist 3.005
lhand -39.5886 18.3476
lfingers 7.12502
lthumb -12.5711 47.9494
rfemur -22.3836 5.58447 22.6988
rtibia 40.285
rfoot -18.6945 -17.374
rtoes -45.8875
lfemur -32.7994 -12.6255 -12.0308
ltibia 59.4357
lfoot -27.4496 -0.706619
ltoes 24.1411
284
root 42.7699 14.1971 4.19926 184.636 -1.07199 -165.524
lowerback 22.4944 2.88297 -0.699713
upperback 8.10812 1.803 -1.68082
thorax -3.65514 0.187897 -1.80949
lowerneck -9.80775 2.25653 4.04564
upperneck -3.65605 2.12333 2.26123
head 0.505735 0.842505 0.0959192
rclavicle -3.81667e-014 -9.85972e-014
rhumerus -50.4478 25.4081 -98.3112
rradius 57.2948
rwrist -37.6799
rhand -36.1066 3.53107
rfingers 7.12502
rthumb -9.21263 -26.2477
lclavicle -3.81667e-014 -9.85972e-014
lhumerus -32.1522 5.11515 71.4847
lradius 41.322
lwrist 1.65511
lhand -38.6999 19.5518
lfingers 7.12502
lthumb -11.7142 49.2043
rfemur -25.4791 3.44311 23.7443
rtibia 44.5095
rfoot -19.8607 -17.6445
rtoes -48.3648
lfemur -35.89 -12.5196 -11.0468
ltibia 63.3286
lfoot -27.3958 -0.0611098
ltoes 19.3394
285
root 42.9743 14.1161 4.1985 183.997 -0.829794 -166.615
lowerback 23.8274 3.29004 -1.71551
upperback 8.6419 1.79612 -2.14699
thorax -3.76235 0.073439 -1.75773
lowerneck -10.0711 2.3541 4.13408
upperneck -4.15324 2.18903 2.39335
head 0.392164 0.840501 0.124687
rclavicle -1.43125e-014 -2.54444e-014
rhumerus -49.5312 24.8471 -98.4704
rradius 55.984
rwrist -37.8185
rhand -35.9207 1.53426
rfingers 7.12502
rthumb -9.03328 -28.2523
lclavicle -1.43125e-014 -2.54444e-014
lhumerus -30.1816 5.5325 72.0838
lradius 39.1441
lwrist 1.40568
lhand -37.8777 20.2112
lfingers 7.12502
lthumb -10.9213 49.9072
rfemur -26.9411 4.23344 23.6393
rtibia 47.907
rfoot -21.3879 -18.0176
rtoes -43.6366
lfemur -36.4992 -12.6328 -11.5729
ltibia 66.12
lfoot -27.6676 0.350267
ltoes 16.2472
